<mxfile host="Electron" modified="2024-01-31T10:21:17.203Z" agent="Mozilla/5.0 (Macintosh; Intel Mac OS X 10_15_7) AppleWebKit/537.36 (KHTML, like Gecko) draw.io/23.0.2 Chrome/120.0.6099.109 Electron/28.1.0 Safari/537.36" etag="HKmR5xcnyA1MXI3WPKVn" version="23.0.2" type="device">
  <diagram name="Seite-1" id="tL0DDLGdbVWQin7-5K3Q">
    <mxGraphModel dx="924" dy="601" grid="1" gridSize="10" guides="1" tooltips="1" connect="1" arrows="1" fold="1" page="1" pageScale="1" pageWidth="1654" pageHeight="2336" math="0" shadow="0">
      <root>
        <mxCell id="0" />
        <mxCell id="1" parent="0" />
        <mxCell id="0w6LrTufolvJsN6nTCpH-19" value="" style="rounded=0;whiteSpace=wrap;html=1;fontFamily=JetBrainsMono Nerd Font;" parent="1" vertex="1">
          <mxGeometry x="720" y="190" width="360" height="370" as="geometry" />
        </mxCell>
        <mxCell id="0w6LrTufolvJsN6nTCpH-6" value="" style="rounded=0;whiteSpace=wrap;html=1;fontFamily=JetBrainsMono Nerd Font;" parent="1" vertex="1">
          <mxGeometry x="330" y="190" width="370" height="280" as="geometry" />
        </mxCell>
        <mxCell id="FaU7nUPEqN84nOcqx7xQ-3" value="" style="rounded=0;whiteSpace=wrap;html=1;" vertex="1" parent="1">
          <mxGeometry x="500" y="210" width="170" height="240" as="geometry" />
        </mxCell>
        <mxCell id="0w6LrTufolvJsN6nTCpH-17" style="edgeStyle=orthogonalEdgeStyle;rounded=0;orthogonalLoop=1;jettySize=auto;html=1;entryX=0.5;entryY=1;entryDx=0;entryDy=0;fontFamily=JetBrainsMono Nerd Font;" parent="1" source="0w6LrTufolvJsN6nTCpH-4" target="0w6LrTufolvJsN6nTCpH-11" edge="1">
          <mxGeometry relative="1" as="geometry" />
        </mxCell>
        <mxCell id="0w6LrTufolvJsN6nTCpH-4" value="Superset&lt;br&gt;(incl. DB etc.)" style="rounded=0;whiteSpace=wrap;html=1;fontFamily=JetBrainsMono Nerd Font;" parent="1" vertex="1">
          <mxGeometry x="360" y="490" width="120" height="60" as="geometry" />
        </mxCell>
        <mxCell id="0w6LrTufolvJsN6nTCpH-13" style="edgeStyle=orthogonalEdgeStyle;rounded=0;orthogonalLoop=1;jettySize=auto;html=1;exitX=1;exitY=0.5;exitDx=0;exitDy=0;entryX=0;entryY=0.5;entryDx=0;entryDy=0;fontFamily=JetBrainsMono Nerd Font;" parent="1" source="0w6LrTufolvJsN6nTCpH-5" target="0w6LrTufolvJsN6nTCpH-7" edge="1">
          <mxGeometry relative="1" as="geometry" />
        </mxCell>
        <mxCell id="0w6LrTufolvJsN6nTCpH-14" style="edgeStyle=orthogonalEdgeStyle;rounded=0;orthogonalLoop=1;jettySize=auto;html=1;exitX=0.5;exitY=1;exitDx=0;exitDy=0;entryX=0;entryY=0.5;entryDx=0;entryDy=0;fontFamily=JetBrainsMono Nerd Font;" parent="1" source="0w6LrTufolvJsN6nTCpH-5" target="0w6LrTufolvJsN6nTCpH-11" edge="1">
          <mxGeometry relative="1" as="geometry" />
        </mxCell>
        <mxCell id="0w6LrTufolvJsN6nTCpH-5" value="Jupyter" style="whiteSpace=wrap;html=1;fontFamily=JetBrainsMono Nerd Font;" parent="1" vertex="1">
          <mxGeometry x="360" y="280" width="120" height="60" as="geometry" />
        </mxCell>
        <mxCell id="0w6LrTufolvJsN6nTCpH-24" style="edgeStyle=orthogonalEdgeStyle;rounded=0;orthogonalLoop=1;jettySize=auto;html=1;entryX=0.5;entryY=0;entryDx=0;entryDy=0;fontFamily=JetBrainsMono Nerd Font;" parent="1" source="0w6LrTufolvJsN6nTCpH-7" target="0w6LrTufolvJsN6nTCpH-20" edge="1">
          <mxGeometry relative="1" as="geometry">
            <Array as="points">
              <mxPoint x="800" y="310" />
            </Array>
          </mxGeometry>
        </mxCell>
        <mxCell id="0w6LrTufolvJsN6nTCpH-26" style="edgeStyle=orthogonalEdgeStyle;rounded=0;orthogonalLoop=1;jettySize=auto;html=1;entryX=0;entryY=0.5;entryDx=0;entryDy=0;fontFamily=JetBrainsMono Nerd Font;" parent="1" source="0w6LrTufolvJsN6nTCpH-7" target="0w6LrTufolvJsN6nTCpH-23" edge="1">
          <mxGeometry relative="1" as="geometry">
            <Array as="points">
              <mxPoint x="880" y="310" />
              <mxPoint x="880" y="400" />
            </Array>
          </mxGeometry>
        </mxCell>
        <mxCell id="0w6LrTufolvJsN6nTCpH-27" style="edgeStyle=orthogonalEdgeStyle;rounded=0;orthogonalLoop=1;jettySize=auto;html=1;entryX=0;entryY=0.5;entryDx=0;entryDy=0;fontFamily=JetBrainsMono Nerd Font;" parent="1" source="0w6LrTufolvJsN6nTCpH-7" target="0w6LrTufolvJsN6nTCpH-22" edge="1">
          <mxGeometry relative="1" as="geometry">
            <Array as="points">
              <mxPoint x="880" y="310" />
              <mxPoint x="880" y="490" />
            </Array>
          </mxGeometry>
        </mxCell>
        <mxCell id="FaU7nUPEqN84nOcqx7xQ-1" style="edgeStyle=orthogonalEdgeStyle;rounded=0;orthogonalLoop=1;jettySize=auto;html=1;exitX=1;exitY=0.5;exitDx=0;exitDy=0;startArrow=classic;startFill=1;" edge="1" parent="1" source="0w6LrTufolvJsN6nTCpH-7" target="0w6LrTufolvJsN6nTCpH-21">
          <mxGeometry relative="1" as="geometry" />
        </mxCell>
        <mxCell id="0w6LrTufolvJsN6nTCpH-7" value="Spark Driver" style="rounded=0;whiteSpace=wrap;html=1;fontFamily=JetBrainsMono Nerd Font;" parent="1" vertex="1">
          <mxGeometry x="530" y="280" width="120" height="60" as="geometry" />
        </mxCell>
        <mxCell id="0w6LrTufolvJsN6nTCpH-18" style="edgeStyle=orthogonalEdgeStyle;rounded=0;orthogonalLoop=1;jettySize=auto;html=1;exitX=0.5;exitY=0;exitDx=0;exitDy=0;startArrow=classic;startFill=1;fontFamily=JetBrainsMono Nerd Font;" parent="1" source="0w6LrTufolvJsN6nTCpH-11" target="0w6LrTufolvJsN6nTCpH-7" edge="1">
          <mxGeometry relative="1" as="geometry" />
        </mxCell>
        <mxCell id="0w6LrTufolvJsN6nTCpH-11" value="Thrift Server" style="rounded=0;whiteSpace=wrap;html=1;fontFamily=JetBrainsMono Nerd Font;" parent="1" vertex="1">
          <mxGeometry x="530" y="370" width="120" height="60" as="geometry" />
        </mxCell>
        <mxCell id="0w6LrTufolvJsN6nTCpH-20" value="Spark Master" style="rounded=0;whiteSpace=wrap;html=1;fontFamily=JetBrainsMono Nerd Font;" parent="1" vertex="1">
          <mxGeometry x="740" y="370" width="120" height="60" as="geometry" />
        </mxCell>
        <mxCell id="0w6LrTufolvJsN6nTCpH-21" value="Spark Worker 1" style="rounded=0;whiteSpace=wrap;html=1;fontFamily=JetBrainsMono Nerd Font;" parent="1" vertex="1">
          <mxGeometry x="930" y="280" width="120" height="60" as="geometry" />
        </mxCell>
        <mxCell id="0w6LrTufolvJsN6nTCpH-22" value="Spark Worker 3" style="rounded=0;whiteSpace=wrap;html=1;fontFamily=JetBrainsMono Nerd Font;" parent="1" vertex="1">
          <mxGeometry x="930" y="460" width="120" height="60" as="geometry" />
        </mxCell>
        <mxCell id="0w6LrTufolvJsN6nTCpH-23" value="Spark Worker 2" style="rounded=0;whiteSpace=wrap;html=1;fontFamily=JetBrainsMono Nerd Font;" parent="1" vertex="1">
          <mxGeometry x="930" y="370" width="120" height="60" as="geometry" />
        </mxCell>
        <mxCell id="FaU7nUPEqN84nOcqx7xQ-4" value="Spark Context" style="text;html=1;strokeColor=none;fillColor=none;align=center;verticalAlign=middle;whiteSpace=wrap;rounded=0;fontFamily=JetBrainsMono Nerd Font;" vertex="1" parent="1">
          <mxGeometry x="555" y="230" width="60" height="30" as="geometry" />
        </mxCell>
        <mxCell id="FaU7nUPEqN84nOcqx7xQ-5" value="Spark Cluster" style="text;html=1;strokeColor=none;fillColor=none;align=center;verticalAlign=middle;whiteSpace=wrap;rounded=0;fontFamily=JetBrainsMono Nerd Font;" vertex="1" parent="1">
          <mxGeometry x="730" y="200" width="110" height="30" as="geometry" />
        </mxCell>
        <mxCell id="FaU7nUPEqN84nOcqx7xQ-6" value="Jupyter Container" style="text;html=1;strokeColor=none;fillColor=none;align=center;verticalAlign=middle;whiteSpace=wrap;rounded=0;fontFamily=JetBrainsMono Nerd Font;" vertex="1" parent="1">
          <mxGeometry x="350" y="210" width="60" height="30" as="geometry" />
        </mxCell>
        <mxCell id="FaU7nUPEqN84nOcqx7xQ-10" style="edgeStyle=orthogonalEdgeStyle;rounded=0;orthogonalLoop=1;jettySize=auto;html=1;entryX=0;entryY=0.5;entryDx=0;entryDy=0;" edge="1" parent="1" source="FaU7nUPEqN84nOcqx7xQ-7" target="0w6LrTufolvJsN6nTCpH-4">
          <mxGeometry relative="1" as="geometry" />
        </mxCell>
        <mxCell id="FaU7nUPEqN84nOcqx7xQ-7" value="Data Analyst" style="shape=umlActor;verticalLabelPosition=bottom;verticalAlign=top;html=1;outlineConnect=0;fontFamily=JetBrainsMono Nerd Font;" vertex="1" parent="1">
          <mxGeometry x="250" y="490" width="30" height="60" as="geometry" />
        </mxCell>
        <mxCell id="FaU7nUPEqN84nOcqx7xQ-12" style="edgeStyle=orthogonalEdgeStyle;rounded=0;orthogonalLoop=1;jettySize=auto;html=1;" edge="1" parent="1" source="FaU7nUPEqN84nOcqx7xQ-11" target="0w6LrTufolvJsN6nTCpH-5">
          <mxGeometry relative="1" as="geometry" />
        </mxCell>
        <mxCell id="FaU7nUPEqN84nOcqx7xQ-11" value="Data Engineer" style="shape=umlActor;verticalLabelPosition=bottom;verticalAlign=top;html=1;outlineConnect=0;fontFamily=JetBrainsMono Nerd Font;" vertex="1" parent="1">
          <mxGeometry x="250" y="280" width="30" height="60" as="geometry" />
        </mxCell>
        <mxCell id="FaU7nUPEqN84nOcqx7xQ-16" value="&lt;font face=&quot;JetBrainsMono Nerd Font&quot;&gt;SQL-Query&lt;/font&gt;" style="text;html=1;strokeColor=none;fillColor=none;align=center;verticalAlign=middle;whiteSpace=wrap;rounded=0;" vertex="1" parent="1">
          <mxGeometry x="500" y="490" width="80" height="30" as="geometry" />
        </mxCell>
      </root>
    </mxGraphModel>
  </diagram>
</mxfile>
